<?xml version="1.0" encoding="utf-8"?>
<!-- Generator: Adobe Illustrator 16.0.0, SVG Export Plug-In . SVG Version: 6.00 Build 0)  -->
<!DOCTYPE svg PUBLIC "-//W3C//DTD SVG 1.1//EN" "http://www.w3.org/Graphics/SVG/1.1/DTD/svg11.dtd">
<svg version="1.1" xmlns="http://www.w3.org/2000/svg" xmlns:xlink="http://www.w3.org/1999/xlink" x="0px" y="0px" width="59.5px"
	 height="59.5px" viewBox="-77 -9.75 59.5 59.5" enable-background="new -77 -9.75 59.5 59.5" xml:space="preserve">
<g id="Layer_1">
	<g id="Your_Icon">
		<path fill="#00DBD8" d="M-26.167-3.939h-42.165c-1.578,0-2.857,1.279-2.857,2.857v42.165c0,1.578,1.279,2.857,2.857,2.857h42.165
			c1.578,0,2.857-1.279,2.857-2.857V-1.083C-23.311-2.66-24.59-3.939-26.167-3.939z M-53.361,14.456
			c1.496-1.694,3.678-2.771,6.111-2.771c2.431,0,4.613,1.077,6.11,2.771c1.269,1.439,2.046,3.32,2.046,5.384
			c0,4.496-3.659,8.155-8.156,8.155c-4.498,0-8.156-3.659-8.156-8.155C-55.406,17.776-54.629,15.895-53.361,14.456z M-28.351,38.899
			h-37.799V14.456h6.864c-0.739,1.647-1.16,3.466-1.16,5.384c0,7.276,5.92,13.195,13.196,13.195s13.195-5.919,13.195-13.195
			c0-1.918-0.422-3.738-1.16-5.384h6.864V38.899z M-28.351,6.408c0,1.269-1.029,2.298-2.3,2.298h-3.004
			c-1.271,0-2.301-1.029-2.301-2.298V3.4c0-1.27,1.029-2.299,2.301-2.299h3.004c1.271,0,2.3,1.029,2.3,2.299V6.408z"/>
	</g>
</g>
<g id="Layer_3" display="none">
	<path display="inline" fill="#00DBD8" d="M-26.276,14.008V8.016h-7.496l1.498-11.985h-5.992l-1.499,11.985h-11.982l1.498-11.985
		h-5.993l-1.498,11.985h-10.484v5.992h9.735l-1.495,11.984h-8.24v5.992h7.49l-1.498,11.985h5.993l1.498-11.985h11.985l-1.501,11.985
		h5.995l1.498-11.985h10.487v-5.992h-9.737l1.492-11.984H-26.276z M-42.006,25.992h-11.985l1.495-11.984h11.982L-42.006,25.992z"/>
</g>
<g id="Layer_2" display="none">
	<g display="inline">
		<path fill="#00DBD8" d="M-34.465,6.59h-2.312c0-7.131-4.76-13.653-10.61-13.653S-57.998-0.542-57.998,6.59h-2.311
			c0-8.32,5.795-15.964,12.921-15.964S-34.465-1.73-34.465,6.59z"/>
		<path fill="#00DBD8" d="M-25.561,8.774c0-0.222-0.273-0.401-0.61-0.401h-42.16c-0.337,0-0.609,0.18-0.609,0.401v40.199
			c0,0.221,0.272,0.401,0.609,0.401h42.159c0.336,0,0.61-0.18,0.61-0.401L-25.561,8.774L-25.561,8.774z M-58.244,13.126h-1.783
			v-2.971h1.783V13.126z M-34.474,13.126h-1.783v-2.971h1.783V13.126z"/>
	</g>
</g>
</svg>
