<?xml version="1.0" encoding="utf-8"?>
<!-- Generator: Adobe Illustrator 16.0.0, SVG Export Plug-In . SVG Version: 6.00 Build 0)  -->
<!DOCTYPE svg PUBLIC "-//W3C//DTD SVG 1.1//EN" "http://www.w3.org/Graphics/SVG/1.1/DTD/svg11.dtd">
<svg version="1.1" id="Layer_1" xmlns="http://www.w3.org/2000/svg" xmlns:xlink="http://www.w3.org/1999/xlink" x="0px" y="0px"
	 width="126.484px" height="25.396px" viewBox="0 0 126.484 25.396" enable-background="new 0 0 126.484 25.396"
	 xml:space="preserve">
<g>
	<path fill="#FFFFFF" d="M0,0.421h10.033c5.858,0,9.401,3.474,9.401,8.489v0.07c0,5.684-4.42,8.629-9.93,8.629H5.402v7.367H0V0.421z
		 M9.682,12.804c2.699,0,4.278-1.613,4.278-3.72V9.015c0-2.421-1.684-3.72-4.385-3.72H5.402v7.507L9.682,12.804L9.682,12.804z"/>
	<path fill="#FFFFFF" d="M22.343,12.769V12.7c0-6.983,5.509-12.7,13.086-12.7c7.575,0,13.014,5.646,13.014,12.628v0.07
		c0,6.979-5.507,12.698-13.084,12.698C27.78,25.397,22.343,19.75,22.343,12.769z M42.794,12.769V12.7
		c0-4.209-3.086-7.718-7.437-7.718c-4.352,0-7.367,3.438-7.367,7.646v0.07c0,4.209,3.087,7.718,7.437,7.718
		C39.778,20.416,42.794,16.978,42.794,12.769z"/>
	<path fill="#FFFFFF" d="M51.841,0.421h5.402v19.645h12.243v4.911H51.841V0.421z"/>
	<path fill="#FFFFFF" d="M71.87,21.398l3.192-3.823c2.21,1.823,4.523,2.98,7.332,2.98c2.209,0,3.542-0.878,3.542-2.314v-0.07
		c0-1.368-0.841-2.069-4.946-3.122c-4.946-1.263-8.138-2.631-8.138-7.507V7.472c0-4.455,3.578-7.402,8.594-7.402
		c3.578,0,6.63,1.123,9.121,3.122l-2.809,4.07c-2.175-1.51-4.312-2.422-6.384-2.422c-2.067,0-3.157,0.948-3.157,2.141v0.069
		c0,1.613,1.054,2.141,5.298,3.229c4.979,1.298,7.788,3.087,7.788,7.366v0.07c0,4.875-3.72,7.612-9.017,7.612
		C78.569,25.327,74.816,24.029,71.87,21.398z"/>
	<path fill="#FFFFFF" d="M96.247,0.421h5.402v24.556h-5.402V0.421z"/>
	<path fill="#FFFFFF" d="M107.787,0.421h18.522v4.807h-13.155v4.98h11.576v4.807h-11.576v5.156h13.33v4.807h-18.697V0.421
		L107.787,0.421z"/>
</g>
</svg>
