<?xml version="1.0" encoding="utf-8"?>
<!-- Generator: Adobe Illustrator 16.0.0, SVG Export Plug-In . SVG Version: 6.00 Build 0)  -->
<!DOCTYPE svg PUBLIC "-//W3C//DTD SVG 1.1//EN" "http://www.w3.org/Graphics/SVG/1.1/DTD/svg11.dtd">
<svg version="1.1" id="Layer_1" xmlns="http://www.w3.org/2000/svg" xmlns:xlink="http://www.w3.org/1999/xlink" x="0px" y="0px"
	 width="126.484px" height="25.396px" viewBox="0 0 126.484 25.396" enable-background="new 0 0 126.484 25.396"
	 xml:space="preserve">
<g>
	<path fill="#333333" d="M0,0.421h10.033c5.858,0,9.401,3.475,9.401,8.489v0.07c0,5.684-4.42,8.629-9.931,8.629H5.402v7.367H0V0.421
		z M9.682,12.804c2.698,0,4.277-1.613,4.277-3.721V9.015c0-2.422-1.684-3.721-4.385-3.721H5.402v7.507L9.682,12.804L9.682,12.804z"
		/>
	<path fill="#333333" d="M22.343,12.769V12.7c0-6.983,5.51-12.7,13.087-12.7c7.574,0,13.014,5.646,13.014,12.628v0.07
		c0,6.979-5.507,12.698-13.084,12.698C27.78,25.397,22.343,19.75,22.343,12.769z M42.794,12.769V12.7
		c0-4.209-3.086-7.718-7.437-7.718c-4.353,0-7.367,3.438-7.367,7.646v0.07c0,4.209,3.087,7.718,7.437,7.718
		C39.778,20.416,42.794,16.978,42.794,12.769z"/>
	<path fill="#333333" d="M51.841,0.421h5.402v19.646h12.243v4.911H51.841V0.421z"/>
	<path fill="#333333" d="M71.87,21.398l3.192-3.823c2.21,1.823,4.522,2.98,7.332,2.98c2.209,0,3.542-0.879,3.542-2.314v-0.07
		c0-1.368-0.841-2.068-4.946-3.122c-4.946-1.263-8.138-2.631-8.138-7.507V7.472c0-4.455,3.578-7.402,8.594-7.402
		c3.578,0,6.63,1.123,9.121,3.122l-2.81,4.07c-2.175-1.511-4.312-2.423-6.384-2.423c-2.066,0-3.157,0.948-3.157,2.142V7.05
		c0,1.613,1.055,2.142,5.299,3.229c4.979,1.298,7.788,3.087,7.788,7.366v0.069c0,4.875-3.721,7.612-9.018,7.612
		C78.569,25.327,74.816,24.029,71.87,21.398z"/>
	<path fill="#333333" d="M96.247,0.421h5.402v24.557h-5.402V0.421z"/>
	<path fill="#333333" d="M107.787,0.421h18.522v4.808h-13.155v4.979h11.576v4.808h-11.576v5.155h13.33v4.808h-18.697V0.421
		L107.787,0.421z"/>
</g>
</svg>
