<?xml version="1.0" encoding="utf-8"?>
<!-- Generator: Adobe Illustrator 16.0.0, SVG Export Plug-In . SVG Version: 6.00 Build 0)  -->
<!DOCTYPE svg PUBLIC "-//W3C//DTD SVG 1.1//EN" "http://www.w3.org/Graphics/SVG/1.1/DTD/svg11.dtd">
<svg version="1.1" id="Your_Icon" xmlns="http://www.w3.org/2000/svg" xmlns:xlink="http://www.w3.org/1999/xlink" x="0px" y="0px"
	 width="100px" height="100px" viewBox="0 0 100 100" enable-background="new 0 0 100 100" xml:space="preserve">
<g>
	<path fill="#FFFFFF" d="M100,32.746c0-0.067-0.009-0.133-0.014-0.199c-0.004-0.062-0.004-0.126-0.014-0.188
		c-0.009-0.063-0.023-0.125-0.037-0.187c-0.013-0.065-0.021-0.13-0.039-0.194c-0.016-0.058-0.039-0.114-0.059-0.171
		c-0.021-0.064-0.04-0.131-0.064-0.194c-0.024-0.057-0.057-0.11-0.084-0.167c-0.027-0.059-0.053-0.12-0.086-0.177
		s-0.072-0.109-0.109-0.163C99.46,31.055,99.43,31,99.391,30.95c-0.041-0.053-0.089-0.102-0.133-0.153
		c-0.041-0.045-0.076-0.094-0.121-0.138c-0.046-0.045-0.098-0.086-0.146-0.129c-0.05-0.042-0.095-0.087-0.146-0.127
		c-0.104-0.08-0.213-0.152-0.326-0.219L51.374,2.966c-0.919-0.531-2.052-0.529-2.97,0.004L1.584,30.179c0,0-0.001,0-0.001,0.001
		c0,0-0.001,0-0.001,0.001l-0.009,0.005c-0.05,0.03-0.095,0.065-0.144,0.097c-0.059,0.04-0.121,0.076-0.177,0.12
		c-0.053,0.04-0.1,0.086-0.149,0.13c-0.047,0.042-0.097,0.081-0.142,0.125c-0.048,0.049-0.09,0.103-0.135,0.154
		c-0.039,0.045-0.081,0.089-0.118,0.135c-0.042,0.055-0.077,0.114-0.115,0.172c-0.032,0.049-0.068,0.096-0.098,0.147
		c-0.033,0.058-0.059,0.119-0.089,0.18C0.379,31.5,0.348,31.553,0.325,31.61c-0.025,0.06-0.043,0.124-0.064,0.186
		C0.24,31.855,0.217,31.912,0.2,31.973c-0.017,0.064-0.027,0.131-0.04,0.197c-0.012,0.061-0.028,0.121-0.037,0.183
		c-0.009,0.066-0.009,0.134-0.014,0.201c-0.004,0.062-0.013,0.122-0.013,0.185L0,67.241c-0.003,1.061,0.562,2.043,1.481,2.573
		l47.145,27.219c0.458,0.266,0.97,0.396,1.48,0.396c0.129,0,0.257-0.008,0.385-0.023c0.022-0.004,0.046-0.012,0.069-0.016
		c0.104-0.016,0.207-0.033,0.31-0.062c0.022-0.005,0.046-0.017,0.069-0.022c0.101-0.029,0.201-0.062,0.299-0.102
		c0.029-0.014,0.056-0.028,0.084-0.041c0.088-0.04,0.177-0.08,0.263-0.129c0.002-0.002,0.004-0.003,0.006-0.004
		c0.002-0.002,0.005-0.002,0.005-0.004L98.43,69.811c0.908-0.527,1.471-1.5,1.473-2.553L100,32.759c0-0.002,0-0.005,0-0.006
		C100,32.75,100,32.748,100,32.746z M49.897,8.956l17.748,10.246L26.584,42.908L8.971,32.739L49.897,8.956z M47.159,89.346
		L5.93,65.541l0.079-27.67l41.228,23.803L47.159,89.346z M50.2,56.542L32.509,46.329L73.57,22.623l17.556,10.136L50.2,56.542z
		 M93.98,65.543L53.084,89.311l0.078-27.637l40.898-23.767L93.98,65.543z"/>
	<polygon fill="#FFFFFF" points="43.817,83.419 26.114,73.198 26.147,61.316 43.851,71.537 	"/>
</g>
</svg>
